<svg width="94" height="94" viewBox="0 0 94 94" fill="none" xmlns="http://www.w3.org/2000/svg">
<g clip-path="url(#clip0_16222_1214)">
<path d="M85.7285 74.1339L29.1481 91.0763C24.882 92.3538 20.5057 89.9944 19.2283 85.7285L2.28591 29.1481C1.00846 24.882 3.36782 20.5057 7.63392 19.2283L64.2143 2.28586C68.4802 1.00847 72.8566 3.36778 74.1341 7.63388L91.0765 64.2142C92.3538 68.4802 89.9944 72.8565 85.7285 74.1339Z" fill="#5CA4DA"/>
<path d="M57.9274 4.16839C58.7292 16.6506 55.5338 31.3081 47.9839 45.3125C39.962 60.192 28.4173 71.478 16.7407 77.4209L2.28591 29.1481C1.00846 24.882 3.36782 20.5057 7.63393 19.2283L57.9274 4.16839Z" fill="#6DAFE0"/>
<path d="M63.2312 36.5876C64.9412 29.2252 64.5403 22.9841 60.5229 21.0065C56.4383 18.8044 51.2285 21.8323 46.0176 27.3073C40.5426 22.0964 35.0665 19.3323 31.1367 21.7323C27.2069 24.1323 27.316 30.2161 29.4674 37.4009C22.2826 39.5524 17.2073 43.0294 17.2949 47.407C17.4497 52.0091 22.7685 55.0649 30.1309 56.7749C28.4209 64.1373 28.8219 70.3783 32.8392 72.3559C36.9238 74.558 42.1336 71.5301 47.3446 66.0552C52.8195 71.2661 58.2956 74.0302 62.2254 71.6301C66.1552 69.2301 66.0461 63.1463 63.8947 55.9615C71.0795 53.8101 76.1548 50.333 76.0673 45.9554C75.9126 41.3533 70.5937 38.2974 63.2312 36.5876ZM58.95 23.924C60.7005 24.8678 61.3045 29.3355 59.7747 35.6653C57.7095 35.3051 55.4199 35.012 52.973 35.0109C51.6943 33.1919 50.1911 31.4401 48.688 29.6882C53.1352 24.9314 56.9749 23.0476 58.95 23.924ZM51.4812 54.5408C48.1362 54.8084 45.4647 54.8745 42.277 54.8503C40.5049 52.2004 39.0917 49.9324 37.477 46.9908C38.8255 44.1404 40.0838 41.8063 41.8812 38.8216C45.2263 38.554 47.8978 38.4879 51.0854 38.512C52.8576 41.1619 54.2707 43.4299 55.8854 46.3716C54.6042 49.4464 53.3459 51.7805 51.4812 54.5408ZM57.9037 50.6603C58.3971 51.4912 58.7332 52.6138 59.0022 53.5119C58.1041 53.7809 57.1387 53.8253 56.0161 54.1615L57.9037 50.6603ZM48.9873 58.4681C48.2909 59.4107 47.7517 60.0614 47.2799 60.9367C46.562 60.173 45.8439 59.4094 45.3505 58.5785C46.9895 58.3323 47.0567 58.5568 48.9873 58.4681ZM37.7648 54.4888C36.7322 54.3088 35.7668 54.353 34.7343 54.173C34.9815 53.3649 35.3862 52.2651 35.8582 51.3899C36.5535 52.8942 36.7779 52.827 37.7648 54.4888ZM35.4586 42.7019C34.9652 41.871 34.629 40.7484 34.3601 39.8503C35.2582 39.5814 36.2235 39.5369 37.3461 39.2008L35.4586 42.7019ZM44.375 34.8941C45.0714 33.9516 45.6106 33.3009 46.0823 32.4256C46.8002 33.1893 47.5183 33.9529 48.0117 34.7838C46.3728 35.0299 46.3055 34.8055 44.375 34.8941ZM55.5975 38.8734C56.63 39.0535 57.5954 39.0092 58.628 39.1893C58.3807 39.9973 57.976 41.0972 57.504 41.9723C56.8088 40.468 56.5843 40.5352 55.5975 38.8734ZM33.2678 24.764C34.9296 23.7771 39.1042 25.4629 43.8611 29.9103C42.401 31.5708 41.2328 33.3885 39.84 35.2736C37.4603 35.4969 35.3723 35.8774 33.0599 36.3252C31.2446 30.2629 31.3815 25.818 33.2678 24.764ZM20.999 47.521C20.9101 45.5903 24.4809 42.8085 30.7678 40.926C31.5973 42.8795 32.4941 45.0575 33.6156 47.1682C32.8064 49.3678 31.9297 51.3428 31.3449 53.4752C24.7233 51.7882 21.0879 49.4516 20.999 47.521ZM34.4122 69.4382C32.6618 68.4945 32.0578 64.0267 33.5876 57.6969C35.6527 58.0572 37.9424 58.3502 40.3893 58.3514C41.668 60.1704 43.1712 61.9222 44.6742 63.674C40.2271 68.431 36.3874 70.3147 34.4122 69.4382ZM60.0944 68.5983C58.4327 69.5851 54.2581 67.8994 49.5011 63.4519C50.9612 61.7914 52.1294 59.9738 53.5223 58.0886C55.9019 57.8653 57.9899 57.4849 60.3023 57.037C62.1177 63.0994 61.9807 67.5442 60.0944 68.5983ZM72.3633 45.8413C72.4522 47.772 68.8813 50.5537 62.5945 52.4363C61.7649 50.4828 60.8681 48.3048 59.7467 46.194C60.5559 43.9944 61.4326 42.0194 62.0173 39.887C68.639 41.574 72.2746 43.9106 72.3633 45.8413Z" fill="white"/>
<path d="M48.1602 51.6208C50.8883 50.8039 52.4376 47.9301 51.6207 45.2021C50.8038 42.474 47.9301 40.9247 45.202 41.7416C42.474 42.5585 40.9247 45.4322 41.7416 48.1603C42.5584 50.8883 45.4322 52.4376 48.1602 51.6208Z" fill="white"/>
</g>
<defs>
<clipPath id="clip0_16222_1214">
<rect width="75" height="75" fill="white" transform="translate(0 21.5142) rotate(-16.6698)"/>
</clipPath>
</defs>
</svg>
